<svg xmlns="http://www.w3.org/2000/svg" version="1.1" xmlns:xlink="http://www.w3.org/1999/xlink" xmlns:svgjs="http://svgjs.dev/svgjs" viewBox="0 10 2400 800"><defs><linearGradient x1="50%" y1="20%" x2="50%" y2="100%" id="sssurf-grad"><stop stop-color="hsla(273, 97%, 47%, 1.00)" stop-opacity="1" offset="0%"></stop><stop stop-color="hsla(208, 97%, 45%, 1.00)" stop-opacity="1" offset="100%"></stop></linearGradient></defs><g fill="url(#sssurf-grad)" transform="matrix(1,0,0,1,2.0377197265625,352.63250732421875)"><path d="M-10,10C117.08333333333334,17.5,347.9166666666667,74.125,600,46C852.0833333333333,17.875,950,-140.41666666666666,1200,-125C1450,-109.58333333333333,1550,122.29166666666667,1800,120C2050,117.70833333333333,2222.9166666666665,-194.33333333333331,2400,-136C2577.0833333333335,-77.66666666666667,3254.1666666666665,184.16666666666669,2650,400C2045.8333333333335,615.8333333333333,156.25,795.8333333333334,-500,900" transform="matrix(1,0,0,1,0,46)" opacity="0.05"></path><path d="M-10,10C117.08333333333334,17.5,347.9166666666667,74.125,600,46C852.0833333333333,17.875,950,-140.41666666666666,1200,-125C1450,-109.58333333333333,1550,122.29166666666667,1800,120C2050,117.70833333333333,2222.9166666666665,-194.33333333333331,2400,-136C2577.0833333333335,-77.66666666666667,3254.1666666666665,184.16666666666669,2650,400C2045.8333333333335,615.8333333333333,156.25,795.8333333333334,-500,900" transform="matrix(1,0,0,1,0,93)" opacity="1.00"></path></g></svg>